# xmcd
#
# Track frame offsets: 
#        150
#        17252
#        26258
#        37157
#        52173
#        68233
#        82641
#        97804
#        111483
#        124279
#        138193
#        155727
#
# Disc length: 2236 seconds
#
# Revision: 0
# Processed by: cddbd v1.5.2PL0 Copyright (c) Steve Scherf et al.
# Submitted via: ExactAudioCopy v0.99pb4
#
DISCID=9608ba0c
DTITLE=The Legends - Over And Over
DYEAR=2009
DGENRE=Rock
TTITLE0=You Won
TTITLE1=Seconds Away
TTITLE2=Always The Same
TTITLE3=Monday To Saturday
TTITLE4=Heartbeats
TTITLE5=Dancefloor
TTITLE6=Turn Away
TTITLE7=Recife
TTITLE8=Over And Over
TTITLE9=Jump
TTITLE10=Something Strange Will Happen
TTITLE11=Touch
EXTD=
EXTT0=
EXTT1=
EXTT2=
EXTT3=
EXTT4=
EXTT5=
EXTT6=
EXTT7=
EXTT8=
EXTT9=
EXTT10=
EXTT11=
PLAYORDER=
